<svg xmlns="http://www.w3.org/2000/svg" version="1.1" xmlns:xlink="http://www.w3.org/1999/xlink"
    xmlns:svgjs="http://svgjs.dev/svgjs" width="2000" height="444" viewBox="0 0 2000 444">
    <g transform="matrix(1,0,0,1,-1.2121212121210192,-0.04891152309130575)">
        <svg viewBox="0 0 396 88" data-background-color="#ffffff"
            preserveAspectRatio="xMidYMid meet" height="444" width="2000"
            xmlns="http://www.w3.org/2000/svg" xmlns:xlink="http://www.w3.org/1999/xlink">
            <g id="tight-bounds" transform="matrix(1,0,0,1,0.23999999999995225,0.00969417574782483)">
                <svg viewBox="0 0 395.52 87.98061164850435" height="87.98061164850435"
                    width="395.52">
                    <g>
                        <svg viewBox="0 0 557.0068569560767 123.9022147234188"
                            height="87.98061164850435" width="395.52">
                            <g transform="matrix(1,0,0,1,161.4868569560768,22.149685115634)">
                                <svg viewBox="0 0 395.52 79.6028444921508" height="79.6028444921508"
                                    width="395.52">
                                    <g id="textblocktransform">
                                        <svg viewBox="0 0 395.52 79.6028444921508"
                                            height="79.6028444921508" width="395.52" id="textblock">
                                            <g>
                                                <svg viewBox="0 0 395.52 79.6028444921508"
                                                    height="79.6028444921508" width="395.52">
                                                    <g transform="matrix(1,0,0,1,0,0)">
                                                        <svg width="395.52"
                                                            viewBox="0.58 -36.75 185.51 37.5"
                                                            height="79.6028444921508"
                                                            data-palette-color="#ffffff">
                                                            <path
                                                                d="M17.05 0L11.1 0 0.58-36 6.9-36 14.08-10 21.23-35.95 27.55-36 34.73-10 41.88-36 48.2-36 37.7 0 31.75 0 24.38-25.6 17.05 0ZM61.2 0.75L61.2 0.75Q57.15 0.75 54.12-1.07 51.1-2.9 49.44-6.11 47.77-9.33 47.77-13.5L47.77-13.5Q47.77-17.75 49.47-20.95 51.17-24.15 54.2-25.95 57.22-27.75 61.2-27.75L61.2-27.75Q65.27-27.75 68.3-25.93 71.32-24.1 73-20.89 74.67-17.68 74.67-13.5L74.67-13.5Q74.67-9.3 72.99-6.09 71.3-2.88 68.27-1.06 65.25 0.75 61.2 0.75ZM61.2-4.9L61.2-4.9Q64.8-4.9 66.55-7.3 68.3-9.7 68.3-13.5L68.3-13.5Q68.3-17.43 66.52-19.76 64.75-22.1 61.2-22.1L61.2-22.1Q58.77-22.1 57.21-21.01 55.65-19.93 54.9-17.99 54.15-16.05 54.15-13.5L54.15-13.5Q54.15-9.58 55.94-7.24 57.72-4.9 61.2-4.9ZM86.22 0L80.17 0 80.17-27 85.5-27 85.5-20.43 84.85-21.28Q85.35-22.63 86.18-23.74 87.02-24.85 88.2-25.58L88.2-25.58Q89.2-26.25 90.41-26.64 91.62-27.03 92.9-27.11 94.17-27.2 95.37-27L95.37-27 95.37-21.38Q94.17-21.73 92.61-21.6 91.05-21.48 89.8-20.73L89.8-20.73Q88.55-20.05 87.76-19 86.97-17.95 86.6-16.61 86.22-15.28 86.22-13.73L86.22-13.73 86.22 0ZM106.22 0L100.07 0 100.12-36 106.22-36 106.22-14 116.09-27 123.62-27 113.14-13.5 124.52 0 116.54 0 106.22-13 106.22 0ZM135.39 0L129.37 0 129.37-27.43Q129.37-28.45 129.44-29.69 129.52-30.93 129.87-32.15 130.22-33.38 131.14-34.38L131.14-34.38Q132.29-35.65 133.63-36.14 134.97-36.63 136.27-36.69 137.57-36.75 138.54-36.75L138.54-36.75 141.92-36.75 141.92-31.85 138.79-31.85Q137.07-31.85 136.23-30.99 135.39-30.13 135.39-28.73L135.39-28.73 135.39 0ZM141.92-22.28L125.02-22.28 125.02-27 141.92-27 141.92-22.28ZM153.19 0L147.16 0 147.16-36.75 153.19-36.75 153.19 0ZM172.61 0.75L172.61 0.75Q168.56 0.75 165.54-1.07 162.51-2.9 160.85-6.11 159.19-9.33 159.19-13.5L159.19-13.5Q159.19-17.75 160.89-20.95 162.59-24.15 165.61-25.95 168.64-27.75 172.61-27.75L172.61-27.75Q176.69-27.75 179.71-25.93 182.74-24.1 184.41-20.89 186.09-17.68 186.09-13.5L186.09-13.5Q186.09-9.3 184.4-6.09 182.71-2.88 179.69-1.06 176.66 0.75 172.61 0.75ZM172.61-4.9L172.61-4.9Q176.21-4.9 177.96-7.3 179.71-9.7 179.71-13.5L179.71-13.5Q179.71-17.43 177.94-19.76 176.16-22.1 172.61-22.1L172.61-22.1Q170.19-22.1 168.62-21.01 167.06-19.93 166.31-17.99 165.56-16.05 165.56-13.5L165.56-13.5Q165.56-9.58 167.35-7.24 169.14-4.9 172.61-4.9Z"
                                                                opacity="1"
                                                                transform="matrix(1,0,0,1,0,0)"
                                                                fill="#ffffff"
                                                                class="wordmark-text-0"
                                                                data-fill-palette-color="primary"
                                                                id="text-0"></path>
                                                        </svg>
                                                    </g>
                                                </svg>
                                            </g>
                                        </svg>
                                    </g>
                                </svg>
                            </g>
                            <g>
                                <svg viewBox="0 0 123.9022147234188 123.9022147234188"
                                    height="123.9022147234188" width="123.9022147234188">
                                    <g>
                                        <svg></svg>
                                    </g>
                                    <g id="icon-0">
                                        <svg viewBox="0 0 123.9022147234188 123.9022147234188"
                                            height="123.9022147234188" width="123.9022147234188">
                                            <g>
                                                <path
                                                    d="M0 61.951c0-34.215 27.736-61.951 61.951-61.951 34.215 0 61.951 27.736 61.951 61.951 0 34.215-27.736 61.951-61.951 61.951-34.215 0-61.951-27.736-61.951-61.951zM61.951 116.724c30.25 0 54.772-24.522 54.773-54.773 0-30.25-24.522-54.772-54.773-54.772-30.25 0-54.772 24.522-54.772 54.772 0 30.25 24.522 54.772 54.772 54.773z"
                                                    data-fill-palette-color="tertiary"
                                                    fill="#ffffff" stroke="transparent"></path>
                                            </g>
                                            <g
                                                transform="matrix(1,0,0,1,28.010383026473562,41.722848012755804)">
                                                <svg
                                                    viewBox="0 0 67.88144867047167 40.456518697907185"
                                                    height="40.456518697907185"
                                                    width="67.88144867047167">
                                                    <g>
                                                        <svg xmlns="http://www.w3.org/2000/svg"
                                                            xmlns:xlink="http://www.w3.org/1999/xlink"
                                                            version="1.0" x="0" y="0"
                                                            viewBox="-0.00010382881845183434 20.2 100.00203850880023 59.599999999999994"
                                                            enable-background="new 0 0 100 100"
                                                            xml:space="preserve" id="dxe-0"
                                                            width="67.88144867047167"
                                                            height="40.456518697907185"
                                                            class="icon-dxe-0"
                                                            data-fill-palette-color="accent"><g fill="#ffffff" data-fill-palette-color="accent"><path fill="#ffffff" d="M73.959 79.8C60.352 79.8 49.003 68.612 48.527 68.136 48.425 68.032 37.903 57.687 26.042 57.687 14.14 57.687 3.664 68.031 3.556 68.136A2.083 2.083 0 0 1 0.612 65.188C1.088 64.712 12.437 53.518 26.042 53.518 39.649 53.518 50.997 64.712 51.474 65.188 51.576 65.292 62.098 75.635 73.96 75.635 85.819 75.635 96.342 65.291 96.448 65.188A2.076 2.076 0 0 1 99.39 65.194 2.074 2.074 0 0 1 99.39 68.136C98.912 68.612 87.563 79.8 73.959 79.8" data-fill-palette-color="accent"></path><path fill="#ffffff" d="M73.959 63.147C60.352 63.147 49.003 51.953 48.527 51.477 48.425 51.375 37.903 41.032 26.042 41.032 14.14 41.032 3.664 51.375 3.556 51.477A2.08 2.08 0 0 1 0.612 51.477 2.076 2.076 0 0 1 0.612 48.533C1.088 48.057 12.437 36.865 26.042 36.865 39.649 36.865 50.997 48.057 51.474 48.533 51.576 48.633 62.098 58.98 73.96 58.98 85.819 58.98 96.342 48.632 96.448 48.533A2.08 2.08 0 0 1 99.39 48.535 2.074 2.074 0 0 1 99.39 51.477C98.912 51.953 87.563 63.147 73.959 63.147" data-fill-palette-color="accent"></path><path fill="#ffffff" d="M73.959 46.482C60.352 46.482 49.003 35.288 48.527 34.812 48.425 34.708 37.903 24.365 26.042 24.365 14.14 24.365 3.664 34.708 3.556 34.812A2.083 2.083 0 0 1 0.612 31.864C1.088 31.388 12.437 20.2 26.042 20.2 39.649 20.2 50.997 31.388 51.474 31.864 51.576 31.968 62.098 42.313 73.96 42.313 85.819 42.313 96.342 31.967 96.448 31.864A2.077 2.077 0 0 1 99.39 31.87 2.074 2.074 0 0 1 99.39 34.812C98.912 35.288 87.563 46.482 73.959 46.482" data-fill-palette-color="accent"></path></g></svg>
                                                    </g>
                                                </svg>
                                            </g>
                                        </svg>
                                    </g>
                                </svg>
                            </g>
                        </svg>
                    </g>
                    <defs></defs>
                </svg>
                <rect width="395.52" height="87.98061164850435" fill="none" stroke="none"
                    visibility="hidden"></rect>
            </g>
        </svg>
    </g>
</svg>