<?xml version="1.0" encoding="UTF-8" standalone="no" ?>
<!DOCTYPE svg PUBLIC "-//W3C//DTD SVG 1.1//EN" "http://www.w3.org/Graphics/SVG/1.1/DTD/svg11.dtd">
<svg xmlns="http://www.w3.org/2000/svg" xmlns:xlink="http://www.w3.org/1999/xlink" version="1.1" width="1080" height="1080" viewBox="0 0 1080 1080" xml:space="preserve">
<desc>Created with Fabric.js 5.2.4</desc>
<defs>
</defs>
<g transform="matrix(1 0 0 1 540 540)" id="165f5492-c9a8-478b-98ee-c846e879c66c"  >
<rect style="stroke: none; stroke-width: 1; stroke-dasharray: none; stroke-linecap: butt; stroke-dashoffset: 0; stroke-linejoin: miter; stroke-miterlimit: 4; fill: rgb(255,255,255); fill-rule: nonzero; opacity: 1; visibility: hidden;" vector-effect="non-scaling-stroke"  x="-540" y="-540" rx="0" ry="0" width="1080" height="1080" />
</g>
<g transform="matrix(1 0 0 1 540 540)" id="a6983608-9c34-4693-86d3-4041f38f929d"  >
</g>
<g transform="matrix(7.61 0 0 7.61 832.84 540.09)"  >
<path style="stroke: none; stroke-width: 1; stroke-dasharray: none; stroke-linecap: butt; stroke-dashoffset: 0; stroke-linejoin: miter; stroke-miterlimit: 4; fill: rgb(255,255,255); fill-rule: nonzero; opacity: 1;" vector-effect="non-scaling-stroke"  transform=" translate(-93.33, 18)" d="M 17.05 0 L 11.1 0 L 0.58 -36 L 6.9 -36 L 14.08 -10 L 21.23 -35.95 L 27.55 -36 L 34.73 -10 L 41.88 -36 L 48.2 -36 L 37.7 0 L 31.75 0 L 24.38 -25.6 L 17.05 0 Z M 61.2 0.75 L 61.2 0.75 Q 57.15 0.75 54.12 -1.07 Q 51.1 -2.9 49.44 -6.11 Q 47.77 -9.33 47.77 -13.5 L 47.77 -13.5 Q 47.77 -17.75 49.47 -20.95 Q 51.17 -24.15 54.2 -25.95 Q 57.22 -27.75 61.2 -27.75 L 61.2 -27.75 Q 65.27 -27.75 68.3 -25.93 Q 71.32 -24.1 73 -20.89 Q 74.67 -17.68 74.67 -13.5 L 74.67 -13.5 Q 74.67 -9.3 72.99 -6.09 Q 71.3 -2.88 68.27 -1.06 Q 65.25 0.75 61.2 0.75 Z M 61.2 -4.9 L 61.2 -4.9 Q 64.8 -4.9 66.55 -7.3 Q 68.3 -9.7 68.3 -13.5 L 68.3 -13.5 Q 68.3 -17.43 66.52 -19.76 Q 64.75 -22.1 61.2 -22.1 L 61.2 -22.1 Q 58.77 -22.1 57.21 -21.01 Q 55.65 -19.93 54.9 -17.99 Q 54.15 -16.05 54.15 -13.5 L 54.15 -13.5 Q 54.15 -9.58 55.94 -7.24 Q 57.72 -4.9 61.2 -4.9 Z M 86.22 0 L 80.17 0 L 80.17 -27 L 85.5 -27 L 85.5 -20.43 L 84.85 -21.28 Q 85.35 -22.63 86.18 -23.74 Q 87.02 -24.85 88.2 -25.58 L 88.2 -25.58 Q 89.2 -26.25 90.41 -26.64 Q 91.62 -27.03 92.9 -27.11 Q 94.17 -27.2 95.37 -27 L 95.37 -27 L 95.37 -21.38 Q 94.17 -21.73 92.61 -21.6 Q 91.05 -21.48 89.8 -20.73 L 89.8 -20.73 Q 88.55 -20.05 87.76 -19 Q 86.97 -17.95 86.6 -16.61 Q 86.22 -15.28 86.22 -13.73 L 86.22 -13.73 L 86.22 0 Z M 106.22 0 L 100.07 0 L 100.12 -36 L 106.22 -36 L 106.22 -14 L 116.09 -27 L 123.62 -27 L 113.14 -13.5 L 124.52 0 L 116.54 0 L 106.22 -13 L 106.22 0 Z M 135.39 0 L 129.37 0 L 129.37 -27.43 Q 129.37 -28.45 129.44 -29.69 Q 129.52 -30.93 129.87 -32.15 Q 130.22 -33.38 131.14 -34.38 L 131.14 -34.38 Q 132.29 -35.65 133.63 -36.14 Q 134.97 -36.63 136.27 -36.69 Q 137.57 -36.75 138.54 -36.75 L 138.54 -36.75 L 141.92 -36.75 L 141.92 -31.85 L 138.79 -31.85 Q 137.07 -31.85 136.23 -30.99 Q 135.39 -30.13 135.39 -28.73 L 135.39 -28.73 L 135.39 0 Z M 141.92 -22.28 L 125.02 -22.28 L 125.02 -27 L 141.92 -27 L 141.92 -22.28 Z M 153.19 0 L 147.16 0 L 147.16 -36.75 L 153.19 -36.75 L 153.19 0 Z M 172.61 0.75 L 172.61 0.75 Q 168.56 0.75 165.54 -1.07 Q 162.51 -2.9 160.85 -6.11 Q 159.19 -9.33 159.19 -13.5 L 159.19 -13.5 Q 159.19 -17.75 160.89 -20.95 Q 162.59 -24.15 165.61 -25.95 Q 168.64 -27.75 172.61 -27.75 L 172.61 -27.75 Q 176.69 -27.75 179.71 -25.93 Q 182.74 -24.1 184.41 -20.89 Q 186.09 -17.68 186.09 -13.5 L 186.09 -13.5 Q 186.09 -9.3 184.4 -6.09 Q 182.71 -2.88 179.69 -1.06 Q 176.66 0.75 172.61 0.75 Z M 172.61 -4.9 L 172.61 -4.9 Q 176.21 -4.9 177.96 -7.3 Q 179.71 -9.7 179.71 -13.5 L 179.71 -13.5 Q 179.71 -17.43 177.94 -19.76 Q 176.16 -22.1 172.61 -22.1 L 172.61 -22.1 Q 170.19 -22.1 168.62 -21.01 Q 167.06 -19.93 166.31 -17.99 Q 165.56 -16.05 165.56 -13.5 L 165.56 -13.5 Q 165.56 -9.58 167.35 -7.24 Q 169.14 -4.9 172.61 -4.9 Z" stroke-linecap="round" />
</g>
<g transform="matrix(3.58 0 0 3.58 -236.01 539.83)"  >
<path style="stroke: rgb(255,255,255); stroke-opacity: 0; stroke-width: 1; stroke-dasharray: none; stroke-linecap: butt; stroke-dashoffset: 0; stroke-linejoin: miter; stroke-miterlimit: 4; fill: rgb(255,255,255); fill-rule: nonzero; opacity: 1;" vector-effect="non-scaling-stroke"  transform=" translate(-61.95, -61.95)" d="M 0 61.951 C 0 27.735999999999997 27.736 0 61.951 0 C 96.166 0 123.902 27.736 123.902 61.951 C 123.902 96.166 96.166 123.902 61.951 123.902 C 27.735999999999997 123.902 0 96.166 0 61.951 z M 61.951 116.724 C 92.201 116.724 116.723 92.202 116.724 61.951 C 116.724 31.701 92.202 7.179000000000002 61.951 7.179000000000002 C 31.701 7.179000000000002 7.179000000000002 31.701 7.179000000000002 61.951 C 7.179000000000002 92.201 31.701 116.723 61.951 116.724 z" stroke-linecap="round" />
</g>
<g transform="matrix(2.43 0 0 2.43 -235.93 580.49)"  >
<path style="stroke: none; stroke-width: 1; stroke-dasharray: none; stroke-linecap: butt; stroke-dashoffset: 0; stroke-linejoin: miter; stroke-miterlimit: 4; fill: rgb(255,255,255); fill-rule: nonzero; opacity: 1;" vector-effect="non-scaling-stroke"  transform=" translate(-50, -66.66)" d="M 73.959 79.8 C 60.352 79.8 49.003 68.612 48.527 68.136 C 48.425 68.032 37.903 57.687 26.042 57.687 C 14.14 57.687 3.664 68.031 3.556 68.136 C 2.7419322787494127 68.94896315175092 1.422963151750932 68.94806772125058 0.6100000000000039 68.134 C -0.20296315175092428 67.3199322787494 -0.2020677212505877 66.00096315175094 0.6119999999999992 65.188 C 1.088 64.712 12.437 53.518 26.042 53.518 C 39.649 53.518 50.997 64.712 51.474 65.188 C 51.576 65.292 62.098 75.635 73.96 75.635 C 85.819 75.635 96.342 65.291 96.448 65.188 C 96.8383677789932 64.79760096044298 97.36816193239719 64.57877328268869 97.9202462966291 64.5798992195294 C 98.47233066086102 64.58102515637012 99.0012278438749 64.8020119598955 99.39 65.194 C 99.78168643468157 65.58330737761354 100.00193467998177 66.11275141704311 100.00193467998177 66.66499999999999 C 100.00193467998177 67.21724858295688 99.78168643468157 67.74669262238646 99.39 68.136 C 98.912 68.612 87.563 79.8 73.959 79.8" stroke-linecap="round" />
</g>
<g transform="matrix(2.43 0 0 2.43 -235.94 539.99)"  >
<path style="stroke: none; stroke-width: 1; stroke-dasharray: none; stroke-linecap: butt; stroke-dashoffset: 0; stroke-linejoin: miter; stroke-miterlimit: 4; fill: rgb(255,255,255); fill-rule: nonzero; opacity: 1;" vector-effect="non-scaling-stroke"  transform=" translate(-50, -50.01)" d="M 73.959 63.147 C 60.352 63.147 49.003 51.953 48.527 51.477 C 48.425 51.375 37.903 41.032 26.042 41.032 C 14.14 41.032 3.664 51.375 3.556 51.477 C 3.1658257364686326 51.86782124250106 2.6362474078819393 52.08743679958975 2.084 52.08743679958975 C 1.5317525921180608 52.08743679958975 1.0021742635313675 51.86782124250106 0.6120000000000001 51.477 C 0.22019318374792152 51.08735020505825 -0.00010382881844861469 50.55757537400768 -0.00010382881844861469 50.004999999999995 C -0.00010382881844861469 49.452424625992315 0.22019318374792124 48.92264979494175 0.6119999999999995 48.533 C 1.088 48.057 12.437 36.865 26.042 36.865 C 39.649 36.865 50.997 48.057 51.474 48.533 C 51.576 48.633 62.098 58.98 73.96 58.98 C 85.819 58.98 96.342 48.632 96.448 48.533 C 96.83835857502103 48.14305609201686 97.3676571729669 47.92418888844582 97.91941430049064 47.924563978267386 C 98.47117142801437 47.92493906808895 99.00017196080108 48.14452571362514 99.39 48.535 C 99.78168643468157 48.92430737761353 100.00193467998177 49.453751417043115 100.00193467998177 50.00599999999999 C 100.00193467998177 50.55824858295688 99.78168643468157 51.08769262238646 99.39 51.477 C 98.912 51.953 87.563 63.147 73.959 63.147" stroke-linecap="round" />
</g>
<g transform="matrix(2.43 0 0 2.43 -235.93 499.46)"  >
<path style="stroke: none; stroke-width: 1; stroke-dasharray: none; stroke-linecap: butt; stroke-dashoffset: 0; stroke-linejoin: miter; stroke-miterlimit: 4; fill: rgb(255,255,255); fill-rule: nonzero; opacity: 1;" vector-effect="non-scaling-stroke"  transform=" translate(-50, -33.34)" d="M 73.959 46.482 C 60.352 46.482 49.003 35.288 48.527 34.812 C 48.425 34.708 37.903 24.365 26.042 24.365 C 14.14 24.365 3.664 34.708 3.556 34.812 C 2.7419322787494114 35.624963151750926 1.4229631517509298 35.62406772125059 0.6100000000000017 34.81 C -0.2029631517509265 33.99593227874941 -0.20206772125058858 32.676963151750925 0.6120000000000001 31.864 C 1.088 31.388 12.437 20.2 26.042 20.2 C 39.649 20.2 50.997 31.388 51.474 31.864 C 51.576 31.968 62.098 42.313 73.96 42.313 C 85.819 42.313 96.342 31.967 96.448 31.864 C 96.83849841955748 31.473847654370886 97.36824309047506 31.255190268798113 97.92024544655665 31.256316038389034 C 98.47224780263824 31.257441807979955 99.00109619817206 31.47825811890919 99.39 31.87 C 99.78168643468157 32.25930737761353 100.00193467998177 32.788751417043116 100.00193467998177 33.341 C 100.00193467998177 33.89324858295688 99.78168643468157 34.422692622386464 99.39 34.812 C 98.912 35.288 87.563 46.482 73.959 46.482" stroke-linecap="round" />
</g>
</svg>