<svg viewBox="0 0 123.9022147234188 123.9022147234188" height="123.9022147234188" width="123.9022147234188">
  <g>
    <svg viewBox="0 0 123.9022147234188 123.9022147234188" height="123.9022147234188" width="123.9022147234188">
      <g>
        <path d="M0 61.951c0-34.215 27.736-61.951 61.951-61.951 34.215 0 61.951 27.736 61.951 61.951 0 34.215-27.736 61.951-61.951 61.951-34.215 0-61.951-27.736-61.951-61.951zM61.951 116.724c30.25 0 54.772-24.522 54.773-54.773 0-30.25-24.522-54.772-54.773-54.772-30.25 0-54.772 24.522-54.772 54.772 0 30.25 24.522 54.772 54.772 54.773z" 
          data-fill-palette-color="tertiary" fill="#ffffff" stroke="transparent"></path>
      </g>
      <g transform="matrix(1,0,0,1,28.010383026473562,41.722848012755804)">
        <svg viewBox="0 0 67.88144867047167 40.456518697907185" height="40.456518697907185" width="67.88144867047167">
          <g>
            <svg xmlns="http://www.w3.org/2000/svg" xmlns:xlink="http://www.w3.org/1999/xlink" version="1.0" x="0" y="0" viewBox="-0.00010382881845183434 20.2 100.00203850880023 59.599999999999994" enable-background="new 0 0 100 100" xml:space="preserve" id="dxe-0" width="67.88144867047167" height="40.456518697907185" class="icon-dxe-0" data-fill-palette-color="accent">
              <g fill="#ffffff" data-fill-palette-color="accent">
                <path fill="#ffffff" d="M73.959 79.8C60.352 79.8 49.003 68.612 48.527 68.136 48.425 68.032 37.903 57.687 26.042 57.687 14.14 57.687 3.664 68.031 3.556 68.136A2.083 2.083 0 0 1 0.612 65.188C1.088 64.712 12.437 53.518 26.042 53.518 39.649 53.518 50.997 64.712 51.474 65.188 51.576 65.292 62.098 75.635 73.96 75.635 85.819 75.635 96.342 65.291 96.448 65.188A2.076 2.076 0 0 1 99.39 65.194 2.074 2.074 0 0 1 99.39 68.136C98.912 68.612 87.563 79.8 73.959 79.8" 
                  data-fill-palette-color="accent"></path>
                <path fill="#ffffff" d="M73.959 63.147C60.352 63.147 49.003 51.953 48.527 51.477 48.425 51.375 37.903 41.032 26.042 41.032 14.14 41.032 3.664 51.375 3.556 51.477A2.08 2.08 0 0 1 0.612 51.477 2.076 2.076 0 0 1 0.612 48.533C1.088 48.057 12.437 36.865 26.042 36.865 39.649 36.865 50.997 48.057 51.474 48.533 51.576 48.633 62.098 58.98 73.96 58.98 85.819 58.98 96.342 48.632 96.448 48.533A2.08 2.08 0 0 1 99.39 48.535 2.074 2.074 0 0 1 99.39 51.477C98.912 51.953 87.563 63.147 73.959 63.147" 
                  data-fill-palette-color="accent"></path>
                <path fill="#ffffff" d="M73.959 46.482C60.352 46.482 49.003 35.288 48.527 34.812 48.425 34.708 37.903 24.365 26.042 24.365 14.14 24.365 3.664 34.708 3.556 34.812A2.083 2.083 0 0 1 0.612 31.864C1.088 31.388 12.437 20.2 26.042 20.2 39.649 20.2 50.997 31.388 51.474 31.864 51.576 31.968 62.098 42.313 73.96 42.313 85.819 42.313 96.342 31.967 96.448 31.864A2.077 2.077 0 0 1 99.39 31.87 2.074 2.074 0 0 1 99.39 34.812C98.912 35.288 87.563 46.482 73.959 46.482" 
                  data-fill-palette-color="accent"></path>
              </g>
            </svg>
          </g>
        </svg>
      </g>
    </svg>
  </g>
</svg>
